# xmcd CD database file
#
# Track frame offsets:
#	150
#	15202
#	26840
#	39632
#	51411
#	64036
#	76219
#	89797
#	101556
#	113813
#	125777
#	138231
#	151604
#	164279
#	178749
#	188147
#
# Disc length: 2662 seconds
#
# Revision: 8
# Processed by: cddbd v1.5.2PL0 Copyright (c) Steve Scherf et al.
# Submitted via: CDex 1.51
#
DISCID=d10a6410
DTITLE=Felix Cameroni - Una vita in Si Bemolle - CD2 - Registrazioni storiche discografiche in studio
DYEAR=2008
DGENRE=Jazz
TTITLE0=As long as I live
TTITLE1=12th Street Rag
TTITLE2=At the jazz Band Hall
TTITLE3=Wolverine Blues
TTITLE4=Darktown Strutters' Ball
TTITLE5=Eh, la bas!
TTITLE6=Fidgety Feet
TTITLE7=Leicester Square Rag
TTITLE8=Milemberg Joys
TTITLE9=Nipper
TTITLE10=High Society
TTITLE11=Running Wild
TTITLE12=Wild Man Blues
TTITLE13=Wabash Blues
TTITLE14=Tequila
TTITLE15=Tiger Rag
EXTD=YEAR: 2008
EXTT0=
EXTT1=
EXTT2=
EXTT3=
EXTT4=
EXTT5=
EXTT6=
EXTT7=
EXTT8=
EXTT9=
EXTT10=
EXTT11=
EXTT12=
EXTT13=
EXTT14=
EXTT15=
PLAYORDER=
